<?xml version="1.0" encoding="UTF-8"?>
<svg xmlns="http://www.w3.org/2000/svg" width="300px" height="300px" viewBox="0 0 128 128">
  <g fill="none" fill-rule="evenodd">
    <rect width="128" height="128" fill="#FFF" rx="23"></rect>
    <path fill="#000" fill-rule="nonzero" d="M31.2117647,69.7035699 C42.9882353,84.456511 72.1058824,88.1447463 72.1058824,82.3859228 C72.1058824,75.4623934 30.5,80.1212169 30.5,44.5329816 C30.5,25.1212169 42.4705882,14.5094522 63.1764706,14.5094522 C79.4176471,14.5094522 100.9,17.2918052 97.3411765,56.8918052 L67.5764706,56.8918052 C69.4529412,45.3094522 66.8,41.7506287 64.0176471,41.7506287 C61.6235294,41.7506287 59.5529412,43.4329816 59.5529412,48.0918052 C59.5529412,55.2094522 63.6294118,58.7035699 70.1647059,60.3859228 C83.2352941,63.556511 98.1823529,65.8212169 98.1823529,87.0447463 C98.1823529,103.674158 91.0647059,113.509452 66.9941176,113.509452 C53.0176471,113.509452 39.3647059,109.950629 31.1470588,103.415335 L31.1470588,69.7035699 L31.2117647,69.7035699 Z"></path>
  </g>
</svg>
