<svg width="128" height="128" viewBox="0 0 128 128" fill="none" xmlns="http://www.w3.org/2000/svg">
<path fill-rule="evenodd" clip-rule="evenodd" d="M52.5615 31.5355C54.5141 29.5829 54.5141 26.4171 52.5615 24.4645C50.6088 22.5118 47.443 22.5118 45.4904 24.4645L10.4645 59.4904C8.51184 61.443 8.51184 64.6088 10.4645 66.5615C10.5557 66.6527 10.6496 66.7396 10.7458 66.8224C10.8286 66.9186 10.9155 67.0125 11.0068 67.1037L46.0327 102.13C47.9853 104.082 51.1511 104.082 53.1037 102.13C55.0564 100.177 55.0564 97.0112 53.1037 95.0586L21.0711 63.0259L52.5615 31.5355Z" fill="#E4A223"/>
<path fill-rule="evenodd" clip-rule="evenodd" d="M75.7633 95.6009C73.8106 97.5535 73.8106 100.719 75.7633 102.672C77.7159 104.625 80.8817 104.625 82.8343 102.672L117.86 67.646C119.813 65.6934 119.813 62.5276 117.86 60.575C117.769 60.4837 117.675 60.3967 117.579 60.314C117.496 60.2178 117.409 60.1239 117.318 60.0327L82.292 25.0067C80.3394 23.0541 77.1736 23.0541 75.221 25.0068C73.2683 26.9594 73.2683 30.1252 75.221 32.0778L107.254 64.1105L75.7633 95.6009Z" fill="#E4A223"/>
</svg>
