<svg width="128" height="128" viewBox="0 0 128 128" fill="none" xmlns="http://www.w3.org/2000/svg">
<g clip-path="url(#clip0_5_2)">
<path d="M58.4584 94.7083H34.2917C25.9341 94.7083 18.8099 91.763 12.9193 85.8724C7.02869 79.9818 4.08337 72.8576 4.08337 64.5C4.08337 56.1424 7.02869 49.0182 12.9193 43.1276C18.8099 37.237 25.9341 34.2917 34.2917 34.2917H58.4584V46.375H34.2917C29.257 46.375 24.9775 48.1371 21.4532 51.6614C17.9289 55.1858 16.1667 59.4653 16.1667 64.5C16.1667 69.5347 17.9289 73.8142 21.4532 77.3385C24.9775 80.8628 29.257 82.625 34.2917 82.625H58.4584V94.7083ZM40.3334 70.5417V58.4583H88.6667V70.5417H40.3334ZM70.5417 94.7083V82.625H94.7084C99.7431 82.625 104.023 80.8628 107.547 77.3385C111.071 73.8142 112.833 69.5347 112.833 64.5C112.833 59.4653 111.071 55.1858 107.547 51.6614C104.023 48.1371 99.7431 46.375 94.7084 46.375H70.5417V34.2917H94.7084C103.066 34.2917 110.19 37.237 116.081 43.1276C121.971 49.0182 124.917 56.1424 124.917 64.5C124.917 72.8576 121.971 79.9818 116.081 85.8724C110.19 91.763 103.066 94.7083 94.7084 94.7083H70.5417Z" fill="#171DAD"/>
</g>
<defs>
<clipPath id="clip0_5_2">
<rect width="128" height="128" fill="white"/>
</clipPath>
</defs>
</svg>
