<svg width="128" height="128" viewBox="0 0 128 128" fill="none" xmlns="http://www.w3.org/2000/svg">
<g clip-path="url(#clip0_5_2)">
<path d="M64 27.5C60.6542 27.5 57.7899 26.3087 55.4073 23.926C53.0247 21.5434 51.8333 18.6792 51.8333 15.3333C51.8333 11.9875 53.0247 9.12325 55.4073 6.74061C57.7899 4.35798 60.6542 3.16666 64 3.16666C67.3458 3.16666 70.2101 4.35798 72.5927 6.74061C74.9753 9.12325 76.1667 11.9875 76.1667 15.3333C76.1667 18.6792 74.9753 21.5434 72.5927 23.926C70.2101 26.3087 67.3458 27.5 64 27.5ZM45.75 124.833V45.75H9.25V33.5833H118.75V45.75H82.25V124.833H70.0833V88.3333H57.9167V124.833H45.75Z" fill="#34AC15"/>
</g>
<defs>
<clipPath id="clip0_5_2">
<rect width="128" height="128" fill="white"/>
</clipPath>
</defs>
</svg>
