<svg xmlns="http://www.w3.org/2000/svg" xmlns:xlink="http://www.w3.org/1999/xlink" width="1792" height="4508.213"><symbol id="facebook" viewBox="0 0 18 32"><title>facebook</title><path d="M17.125.214v4.714h-2.804q-1.536 0-2.071.643T11.714 7.5v3.375h5.232l-.696 5.286h-4.536v13.554H6.25V16.161H1.696v-5.286H6.25V6.982q0-3.321 1.857-5.152T13.053 0q2.625 0 4.071.214z"/></symbol><use xlink:href="#facebook" width="18" height="32"/><view id="facebook-icon" viewBox="0 0 18 32"/><symbol id="instagram" viewBox="0 0 32 32"><title>instagram</title><path d="M18.286 16q0-1.893-1.339-3.232t-3.232-1.339-3.232 1.339T9.144 16t1.339 3.232 3.232 1.339 3.232-1.339T18.286 16zm2.464 0q0 2.929-2.054 4.982t-4.982 2.054-4.982-2.054T6.678 16t2.054-4.982 4.982-2.054 4.982 2.054T20.75 16zm1.929-7.321q0 .679-.482 1.161t-1.161.482-1.161-.482-.482-1.161.482-1.161 1.161-.482 1.161.482.482 1.161zM13.714 4.75l-1.366-.009q-1.241-.009-1.884 0t-1.723.054-1.839.179-1.277.33q-.893.357-1.571 1.036T3.018 7.911q-.196.518-.33 1.277t-.179 1.839-.054 1.723 0 1.884T2.464 16t-.009 1.366 0 1.884.054 1.723.179 1.839.33 1.277q.357.893 1.036 1.571t1.571 1.036q.518.196 1.277.33t1.839.179 1.723.054 1.884 0 1.366-.009 1.366.009 1.884 0 1.723-.054 1.839-.179 1.277-.33q.893-.357 1.571-1.036t1.036-1.571q.196-.518.33-1.277t.179-1.839.054-1.723 0-1.884T24.964 16t.009-1.366 0-1.884-.054-1.723-.179-1.839-.33-1.277q-.357-.893-1.036-1.571t-1.571-1.036q-.518-.196-1.277-.33t-1.839-.179-1.723-.054-1.884 0-1.366.009zM27.429 16q0 4.089-.089 5.661-.179 3.714-2.214 5.75t-5.75 2.214q-1.571.089-5.661.089t-5.661-.089q-3.714-.179-5.75-2.214T.09 21.661Q.001 20.09.001 16t.089-5.661q.179-3.714 2.214-5.75t5.75-2.214q1.571-.089 5.661-.089t5.661.089q3.714.179 5.75 2.214t2.214 5.75q.089 1.571.089 5.661z"/></symbol><use xlink:href="#instagram" y="32" width="32" height="32"/><view id="instagram-icon" viewBox="0 32 32 32"/><symbol class="svg-inline--fa fa-linkedin-in fa-w-14" id="linkedin" viewBox="0 0 448 512"><title>linkedin</title><path fill="currentColor" d="M100.28 448H7.4V148.9h92.88zM53.79 108.1C24.09 108.1 0 83.5 0 53.8a53.79 53.79 0 01107.58 0c0 29.7-24.1 54.3-53.79 54.3zM447.9 448h-92.68V302.4c0-34.7-.7-79.2-48.29-79.2-48.29 0-55.69 37.7-55.69 76.7V448h-92.78V148.9h89.08v40.8h1.3c12.4-23.5 42.69-48.3 87.88-48.3 94 0 111.28 61.9 111.28 142.3V448z"/></symbol><use class="svg-inline--fa fa-linkedin-in fa-w-14" xlink:href="#linkedin" y="64" width="448" height="512"/><view id="linkedin-icon" viewBox="0 64 448 512"/><symbol class="svg-inline--fa fa-twitter fa-w-16" id="twitter" viewBox="0 0 512 512"><title>twitter</title><path fill="currentColor" d="M459.37 151.716c.325 4.548.325 9.097.325 13.645 0 138.72-105.583 298.558-298.558 298.558-59.452 0-114.68-17.219-161.137-47.106 8.447.974 16.568 1.299 25.34 1.299 49.055 0 94.213-16.568 130.274-44.832-46.132-.975-84.792-31.188-98.112-72.772 6.498.974 12.995 1.624 19.818 1.624 9.421 0 18.843-1.3 27.614-3.573-48.081-9.747-84.143-51.98-84.143-102.985v-1.299c13.969 7.797 30.214 12.67 47.431 13.319-28.264-18.843-46.781-51.005-46.781-87.391 0-19.492 5.197-37.36 14.294-52.954 51.655 63.675 129.3 105.258 216.365 109.807-1.624-7.797-2.599-15.918-2.599-24.04 0-57.828 46.782-104.934 104.934-104.934 30.213 0 57.502 12.67 76.67 33.137 23.715-4.548 46.456-13.32 66.599-25.34-7.798 24.366-24.366 44.833-46.132 57.827 21.117-2.273 41.584-8.122 60.426-16.243-14.292 20.791-32.161 39.308-52.628 54.253z"/></symbol><use class="svg-inline--fa fa-twitter fa-w-16" xlink:href="#twitter" y="576" width="512" height="512"/><view id="twitter-icon" viewBox="0 576 512 512"/><symbol id="youtube" viewBox="0 0 32 32"><title>youtube</title><path d="M17.339 22.214v3.768q0 1.196-.696 1.196-.411 0-.804-.393V21.41q.393-.393.804-.393.696 0 .696 1.196zm6.036.018v.821h-1.607v-.821q0-1.214.804-1.214t.804 1.214zm-17.25-3.893h1.911V16.66H2.465v1.679H4.34V28.5h1.786V18.339zM11.268 28.5h1.589v-8.821h-1.589v6.75q-.536.75-1.018.75-.321 0-.375-.375-.018-.054-.018-.625v-6.5H8.268v6.982q0 .875.143 1.304.214.661 1.036.661.857 0 1.821-1.089v.964zm7.661-2.643v-3.518q0-1.304-.161-1.768-.304-1-1.268-1-.893 0-1.661.964V16.66H14.25v11.839h1.589v-.857q.804.982 1.661.982.964 0 1.268-.982.161-.482.161-1.786zm6.035-.178v-.232h-1.625q0 .911-.036 1.089-.125.643-.714.643-.821 0-.821-1.232v-1.554h3.196v-1.839q0-1.411-.482-2.071-.696-.911-1.893-.911-1.214 0-1.911.911-.5.661-.5 2.071v3.089q0 1.411.518 2.071.696.911 1.929.911 1.286 0 1.929-.946.321-.482.375-.964.036-.161.036-1.036zM14.107 9.375v-3.75q0-1.232-.768-1.232t-.768 1.232v3.75q0 1.25.768 1.25t.768-1.25zm12.839 13.411q0 4.179-.464 6.25-.25 1.054-1.036 1.768t-1.821.821Q20.339 32 13.714 32t-9.911-.375q-1.036-.107-1.83-.821T.946 29.036q-.464-2-.464-6.25 0-4.179.464-6.25.25-1.054 1.036-1.768t1.839-.839q3.268-.357 9.893-.357t9.911.357q1.036.125 1.83.839t1.027 1.768q.464 2 .464 6.25zM9.125 0h1.821L8.785 7.125v4.839H6.999V7.125q-.25-1.321-1.089-3.786Q5.249 1.5 4.749 0h1.893L7.91 4.696zm6.607 5.946v3.125q0 1.446-.5 2.107-.679.911-1.893.911-1.196 0-1.875-.911-.5-.679-.5-2.107V5.946q0-1.429.5-2.089.679-.911 1.875-.911 1.214 0 1.893.911.5.661.5 2.089zm5.982-2.892v8.911h-1.625v-.982q-.946 1.107-1.839 1.107-.821 0-1.054-.661-.143-.429-.143-1.339V3.054h1.625v6.554q0 .589.018.625.054.393.375.393.482 0 1.018-.768V3.054h1.625z"/></symbol><use xlink:href="#youtube" y="1088" width="32" height="32"/><view id="youtube-icon" viewBox="0 1088 32 32"/><symbol id="alarm" viewBox="0 0 24 24"><title>alarm</title><path d="M12 20a7 7 0 01-7-7 7 7 0 017-7 7 7 0 017 7 7 7 0 01-7 7m0-16a9 9 0 00-9 9 9 9 0 009 9 9 9 0 009-9 9 9 0 00-9-9m.5 4H11v6l4.75 2.85.75-1.23-4-2.37V8M7.88 3.39L6.6 1.86 2 5.71l1.29 1.53 4.59-3.85M22 5.72l-4.6-3.86-1.29 1.53 4.6 3.86L22 5.72z"/></symbol><use xlink:href="#alarm" y="1120" width="24" height="24"/><view id="alarm-icon" viewBox="0 1120 24 24"/><symbol id="check" viewBox="0 0 48 48"><title>check</title><path d="M18 32.34L9.66 24l-2.83 2.83L18 38l24-24-2.83-2.83z"/></symbol><use xlink:href="#check" y="1144" width="48" height="48"/><view id="check-icon" viewBox="0 1144 48 48"/><symbol id="chevron-down" viewBox="0 0 24 24"><title>chevron-down</title><path d="M7.41 8.58L12 13.17l4.59-4.59L18 10l-6 6-6-6 1.41-1.42z"/></symbol><use xlink:href="#chevron-down" y="1192" width="24" height="24"/><view id="chevron-down-icon" viewBox="0 1192 24 24"/><symbol id="chevron-left" viewBox="0 0 48 48"><title>chevron-left</title><path d="M30.83 32.67l-9.17-9.17 9.17-9.17L28 11.5l-12 12 12 12z"/></symbol><use xlink:href="#chevron-left" y="1216" width="48" height="48"/><view id="chevron-left-icon" viewBox="0 1216 48 48"/><symbol id="chevron-right" viewBox="0 0 48 48"><title>chevron-right</title><path d="M17.17 32.92l9.17-9.17-9.17-9.17L20 11.75l12 12-12 12z"/></symbol><use xlink:href="#chevron-right" y="1264" width="48" height="48"/><view id="chevron-right-icon" viewBox="0 1264 48 48"/><symbol id="chevron-up" viewBox="0 0 24 24"><title>chevron-up</title><path d="M7.41 15.41L12 10.83l4.59 4.58L18 14l-6-6-6 6 1.41 1.41z"/></symbol><use xlink:href="#chevron-up" y="1312" width="24" height="24"/><view id="chevron-up-icon" viewBox="0 1312 24 24"/><symbol id="clear" viewBox="0 0 48 48"><title>clear</title><path d="M38 12.83L35.17 10 24 21.17 12.83 10 10 12.83 21.17 24 10 35.17 12.83 38 24 26.83 35.17 38 38 35.17 26.83 24z"/></symbol><use xlink:href="#clear" y="1336" width="48" height="48"/><view id="clear-icon" viewBox="0 1336 48 48"/><symbol id="clock" viewBox="0 0 24 24"><title>clock</title><path d="M11.99 2C6.47 2 2 6.48 2 12s4.47 10 9.99 10C17.52 22 22 17.52 22 12S17.52 2 11.99 2zM12 20c-4.42 0-8-3.58-8-8s3.58-8 8-8 8 3.58 8 8-3.58 8-8 8z"/><path d="M0 0h24v24H0z" fill="none"/><path d="M12.5 7H11v6l5.25 3.15.75-1.23-4.5-2.67z"/></symbol><use xlink:href="#clock" y="1384" width="24" height="24"/><view id="clock-icon" viewBox="0 1384 24 24"/><symbol id="download" viewBox="0 0 24 24"><title>download</title><path d="M5 20h14v-2H5m14-9h-4V3H9v6H5l7 7 7-7z"/></symbol><use xlink:href="#download" y="1408" width="24" height="24"/><view id="download-icon" viewBox="0 1408 24 24"/><symbol id="envelope" viewBox="0 0 512 512"><title>envelope</title><path d="M502.3 190.8c3.9-3.1 9.7-.2 9.7 4.7V400c0 26.5-21.5 48-48 48H48c-26.5 0-48-21.5-48-48V195.6c0-5 5.7-7.8 9.7-4.7 22.4 17.4 52.1 39.5 154.1 113.6 21.1 15.4 56.7 47.8 92.2 47.6 35.7.3 72-32.8 92.3-47.6 102-74.1 131.6-96.3 154-113.7zM256 320c23.2.4 56.6-29.2 73.4-41.4 132.7-96.3 142.8-104.7 173.4-128.7 5.8-4.5 9.2-11.5 9.2-18.9v-19c0-26.5-21.5-48-48-48H48C21.5 64 0 85.5 0 112v19c0 7.4 3.4 14.3 9.2 18.9 30.6 23.9 40.7 32.4 173.4 128.7 16.8 12.2 50.2 41.8 73.4 41.4z"/></symbol><use xlink:href="#envelope" y="1432" width="512" height="512"/><view id="envelope-icon" viewBox="0 1432 512 512"/><symbol id="heart" viewBox="0 0 1792 1792"><title>heart</title><path d="M896 1664q-26 0-44-18l-624-602q-10-8-27.5-26T145 952.5 77 855 23.5 734 0 596q0-220 127-344t351-124q62 0 126.5 21.5t120 58T820 276t76 68q36-36 76-68t95.5-68.5 120-58T1314 128q224 0 351 124t127 344q0 221-229 450l-623 600q-18 18-44 18z"/></symbol><use xlink:href="#heart" y="1944" width="1792" height="1792"/><view id="heart-icon" viewBox="0 1944 1792 1792"/><symbol id="long-arrow-left" viewBox="0 0 16 8"><title>arrow_right_alt-24px</title><g fill="none" fill-rule="evenodd"><path d="M0 0h24v24H0z" transform="matrix(-1 0 0 1 20 -8)"/><path fill="#000" fill-rule="nonzero" d="M16.01 11H4v2h12.01v3L20 12l-3.99-4z" transform="matrix(-1 0 0 1 20 -8)"/></g></symbol><use xlink:href="#long-arrow-left" y="3736" width="16" height="8"/><view id="long-arrow-left-icon" viewBox="0 3736 16 8"/><symbol id="long-arrow" viewBox="0 0 476.213 476.213"><title>long-arrow</title><path d="M345.606 107.5l-21.212 21.213 94.393 94.394H0v30h418.787L324.394 347.5l21.212 21.213 130.607-130.607z"/></symbol><use xlink:href="#long-arrow" y="3744" width="476.213" height="476.213"/><view id="long-arrow-icon" viewBox="0 3744 476.213 476.213"/><symbol id="menu" viewBox="0 0 48 48"><title>menu</title><path d="M6 36h36v-4H6v4zm0-10h36v-4H6v4zm0-14v4h36v-4H6z"/></symbol><use xlink:href="#menu" y="4220.213" width="48" height="48"/><view id="menu-icon" viewBox="0 4220.213 48 48"/><symbol id="person" viewBox="0 0 24 24"><title>person</title><path d="M12 5.9a2.1 2.1 0 110 4.2 2.1 2.1 0 010-4.2m0 9c2.97 0 6.1 1.46 6.1 2.1v1.1H5.9V17c0-.64 3.13-2.1 6.1-2.1M12 4C9.79 4 8 5.79 8 8s1.79 4 4 4 4-1.79 4-4-1.79-4-4-4zm0 9c-2.67 0-8 1.34-8 4v3h16v-3c0-2.66-5.33-4-8-4z"/><path d="M0 0h24v24H0z" fill="none"/></symbol><use xlink:href="#person" y="4268.213" width="24" height="24"/><view id="person-icon" viewBox="0 4268.213 24 24"/><symbol id="phone" viewBox="0 0 48 48"><title>phone</title><path d="M13.25 21.59a30.12 30.12 0 0013.18 13.17l4.4-4.41c.55-.55 1.34-.71 2.03-.49C35.1 30.6 37.51 31 40 31c1.11 0 2 .89 2 2v7c0 1.11-.89 2-2 2C21.22 42 6 26.78 6 8a2 2 0 012-2h7c1.11 0 2 .89 2 2 0 2.49.4 4.9 1.14 7.14.22.69.06 1.48-.49 2.03l-4.4 4.42z"/></symbol><use xlink:href="#phone" y="4292.213" width="48" height="48"/><view id="phone-icon" viewBox="0 4292.213 48 48"/><symbol id="play" viewBox="0 0 24 24"><title>play</title><path d="M0 0h24v24H0z" fill="none"/><path d="M10 16.5l6-4.5-6-4.5v9zM12 2C6.48 2 2 6.48 2 12s4.48 10 10 10 10-4.48 10-10S17.52 2 12 2zm0 18c-4.41 0-8-3.59-8-8s3.59-8 8-8 8 3.59 8 8-3.59 8-8 8z"/></symbol><use xlink:href="#play" y="4340.213" width="24" height="24"/><view id="play-icon" viewBox="0 4340.213 24 24"/><symbol id="plus" viewBox="0 0 48 48"><title>plus</title><path d="M38 26H26v12h-4V26H10v-4h12V10h4v12h12v4z"/></symbol><use xlink:href="#plus" y="4364.213" width="48" height="48"/><view id="plus-icon" viewBox="0 4364.213 48 48"/><symbol id="search" viewBox="0 0 24 24"><title>search</title><path d="M9.5 3A6.5 6.5 0 0116 9.5c0 1.61-.59 3.09-1.56 4.23l.27.27h.79l5 5-1.5 1.5-5-5v-.79l-.27-.27A6.516 6.516 0 019.5 16 6.5 6.5 0 013 9.5 6.5 6.5 0 019.5 3m0 2C7 5 5 7 5 9.5S7 14 9.5 14 14 12 14 9.5 12 5 9.5 5z"/></symbol><use xlink:href="#search" y="4412.213" width="24" height="24"/><view id="search-icon" viewBox="0 4412.213 24 24"/><symbol id="visibility_off" viewBox="0 0 24 24"><title>visibility_off</title><path d="M0 0h24v24H0zm0 0h24v24H0zm0 0h24v24H0zm0 0h24v24H0z" fill="none"/><path d="M12 7c2.76 0 5 2.24 5 5 0 .65-.13 1.26-.36 1.83l2.92 2.92c1.51-1.26 2.7-2.89 3.43-4.75-1.73-4.39-6-7.5-11-7.5-1.4 0-2.74.25-3.98.7l2.16 2.16C10.74 7.13 11.35 7 12 7zM2 4.27l2.28 2.28.46.46A11.804 11.804 0 001 12c1.73 4.39 6 7.5 11 7.5 1.55 0 3.03-.3 4.38-.84l.42.42L19.73 22 21 20.73 3.27 3 2 4.27zM7.53 9.8l1.55 1.55c-.05.21-.08.43-.08.65 0 1.66 1.34 3 3 3 .22 0 .44-.03.65-.08l1.55 1.55c-.67.33-1.41.53-2.2.53-2.76 0-5-2.24-5-5 0-.79.2-1.53.53-2.2zm4.31-.78l3.15 3.15.02-.16c0-1.66-1.34-3-3-3l-.17.01z"/></symbol><use xlink:href="#visibility_off" y="4436.213" width="24" height="24"/><view id="visibility_off-icon" viewBox="0 4436.213 24 24"/><symbol id="visibility" viewBox="0 0 24 24"><title>visibility</title><path d="M0 0h24v24H0z" fill="none"/><path d="M12 4.5C7 4.5 2.73 7.61 1 12c1.73 4.39 6 7.5 11 7.5s9.27-3.11 11-7.5c-1.73-4.39-6-7.5-11-7.5zM12 17c-2.76 0-5-2.24-5-5s2.24-5 5-5 5 2.24 5 5-2.24 5-5 5zm0-8c-1.66 0-3 1.34-3 3s1.34 3 3 3 3-1.34 3-3-1.34-3-3-3z"/></symbol><use xlink:href="#visibility" y="4460.213" width="24" height="24"/><view id="visibility-icon" viewBox="0 4460.213 24 24"/><symbol id="zoom-in" viewBox="0 0 24 24"><title>zoom-in</title><path d="M15.5 14h-.79l-.28-.27A6.471 6.471 0 0016 9.5 6.5 6.5 0 109.5 16c1.61 0 3.09-.59 4.23-1.57l.27.28v.79l5 4.99L20.49 19l-4.99-5zm-6 0C7.01 14 5 11.99 5 9.5S7.01 5 9.5 5 14 7.01 14 9.5 11.99 14 9.5 14z"/><path d="M12 10h-2v2H9v-2H7V9h2V7h1v2h2v1z"/></symbol><use xlink:href="#zoom-in" y="4484.213" width="24" height="24"/><view id="zoom-in-icon" viewBox="0 4484.213 24 24"/></svg>