<svg width="644" height="317" viewBox="0 0 644 317" fill="none" xmlns="http://www.w3.org/2000/svg">
<path d="M480 79.2462V264.546H528.7V174.146V79.2462H480Z" fill="black"/>
<path d="M578.1 179.946H533V174.146H528.7L546 264.546H595.3L578.1 179.946Z" fill="black"/>
<path d="M590.4 121.146H543.1C543.1 140.646 543.4 161.046 533.1 174.246C545.1 176.746 590.4 180.746 590.4 121.146Z" fill="black"/>
<path d="M282.7 226.946C277.8 226.946 277.8 219.746 277.8 213.146C277.8 197.046 277.8 184.746 288.1 174.946C229 174.946 229 219.946 229 230.846C229 243.446 231.9 268.446 260.8 268.446C294.9 268.446 293.8 227.746 288.1 211.346C288.1 219.846 288.1 226.946 282.7 226.946Z" fill="black"/>
<path d="M285 115.946C263.5 115.946 241.4 128.046 229.1 139.746V187.646C244.6 171.546 262.7 162.946 274.7 162.946C282.7 162.946 288.2 166.946 288.2 175.046V211.446H294.8L302.8 264.546H336.9V175.046C336.9 156.146 335.2 115.946 285 115.946Z" fill="black"/>
<path d="M453.288 112.328C468.401 107.026 476.355 90.4773 471.053 75.3644C465.752 60.2515 449.203 52.2976 434.09 57.599C418.977 62.9004 411.023 79.4495 416.325 94.5624C421.626 109.675 438.175 117.629 453.288 112.328Z" fill="black"/>
<path d="M400.4 121.146V79.2462H366.2L358.2 110.746L341.8 121.146V147.246H351.6V264.546H400.4V147.246H419.1V264.546H467.8V121.146H400.4Z" fill="black"/>
<path d="M211.7 79.2462H177.6L169.6 110.746L153.2 121.146V147.246H163V264.546H211.7V147.246H222.6V121.146H211.7V79.2462Z" fill="black"/>
<path d="M49.1 201.246C67.3 224.046 112.3 229.746 112.3 220.846C112.3 210.146 48 217.346 48 162.346C48 132.346 66.5 115.946 98.5 115.946C123.6 115.946 156.8 120.246 151.3 181.446H105.3C108.2 163.546 104.1 158.046 99.8 158.046C96.1 158.046 92.9 160.646 92.9 167.846C92.9 178.846 99.2 184.246 109.3 186.846C129.5 191.746 152.6 195.246 152.6 228.046C152.6 253.746 141.6 268.946 104.4 268.946C82.8 268.946 61.7 263.446 49 253.346V201.246H49.1Z" fill="black"/>
</svg>
