<?xml version="1.0" encoding="UTF-8"?>
<svg width="425px" height="72px" viewBox="0 0 425 72" version="1.1" xmlns="http://www.w3.org/2000/svg" xmlns:xlink="http://www.w3.org/1999/xlink">
    <title>logo (zwart op wit)</title>
    <g id="logo-(zwart-op-wit)" stroke="none" stroke-width="1" fill="none" fill-rule="evenodd">
        <polyline id="Fill-1" fill="#1A1919" points="135 1 135 4.6721894 107.468011 4.6721894 107.468011 72 103.532997 72 103.532997 4.6721894 76 4.6721894 76 1 135 1"></polyline>
        <polyline id="Fill-2" fill="#1A1919" points="164.789012 68.335748 208.152329 68.335748 181.5005 10.4028161 153.159632 72 149 72 181.5005 1 214 72 163.135953 72 164.789012 68.335748"></polyline>
        <polyline id="Fill-3" fill="#1A1919" points="287 1 287 4.6721894 259.467473 4.6721894 259.467473 72 255.533535 72 255.533535 4.6721894 228 4.6721894 228 1 287 1"></polyline>
        <polygon id="Fill-4" fill="#1A1919" points="322 72 326 72 326 1 322 1"></polygon>
        <path d="M419.367877,72 L379.024635,36.644665 L415.175757,1 L420.808887,1 L384.657766,36.644665 L425,72 L419.367877,72 Z M369,72 L372.930302,72 L372.930302,1 L369,1 L369,72 Z" id="Fill-5" fill="#1A1919"></path>
        <path d="M44.6649081,40.1610195 C40.5305327,36.9664496 33.9795858,34.4969663 25.1957951,32.821388 C16.9973227,31.2754675 11.3499547,29.2647735 8.41231938,26.8501454 C5.5278948,24.4813963 4.06610496,21.3775869 4.06610496,17.6254883 C4.06610496,13.3128688 5.84615536,10.0055963 9.50564983,7.51317357 C13.1741801,5.01676132 18.3165479,3.75209863 24.7891846,3.75209863 C31.9334816,3.75209863 39.0536832,4.92500346 45.9901571,7.21595789 L48.5934682,4.01440643 L48.4709831,3.97251697 C40.8497972,1.3364732 32.8822395,0 24.7891846,0 C17.3878696,0 11.3529667,1.60576257 6.85213985,4.77440089 C2.3061341,7.97894445 0,12.302535 0,17.6254883 C0,22.7659233 1.93968266,26.8631112 5.76583724,29.8033523 C9.52372141,32.6947223 15.787531,34.964732 24.38659,36.5525419 C33.4183629,38.184236 39.5084846,40.4283142 42.487283,43.21895 C45.43797,45.9866463 46.934899,49.2979083 46.934899,53.060978 C46.934899,57.7506026 44.9821647,61.4857459 41.1329186,64.1606871 C37.2314658,66.8715335 31.7316823,68.2459066 24.7891846,68.2459066 C17.2764282,68.2459066 9.74861215,66.6152099 2.38042836,63.43959 L0,66.3678626 L0,66.5364178 L0.340348045,66.6910098 C8.06795543,70.2127164 16.2945392,72 24.7891846,72 C32.7587503,72 39.1761684,70.3024796 43.8657427,66.9593018 C48.5994921,63.5802189 51,58.9045574 51,53.060978 C51,47.7489957 48.8685578,43.4084499 44.6649081,40.1610195" id="Fill-6" fill="#1A1919"></path>
    </g>
</svg>